<?xml version="1.0" encoding="utf-8"?>
<!-- Generator: Adobe Illustrator 24.0.1, SVG Export Plug-In . SVG Version: 6.00 Build 0)  -->
<svg version="1.1" id="Layer_1" xmlns="http://www.w3.org/2000/svg" xmlns:xlink="http://www.w3.org/1999/xlink" x="0px" y="0px"
	 viewBox="0 0 301.1 184.2" style="enable-background:new 0 0 301.1 184.2;" xml:space="preserve">
<title>Asset 3</title>
<path d="M8.3,26.1l-1-0.2h26.8l1.7-0.3c12.1,0,22.5,5.8,31.2,17.5c4.2,6.1,6.5,13.4,6.4,20.8V65c0,9.2-4.4,18.9-13.3,29
	c19.8,10.9,29.7,25.7,29.7,44.2c0,18.5-9.7,32.8-29,42.8c-5.3,2-10.9,3.1-16.5,3.2H5.6c-3.8-0.7-5.6-2.5-5.6-5.4V31.5
	c0.5-3.7,3.3-5.6,8.3-5.6V26.1z M11.1,37v54.3H30c15.5,0,25.5-5.7,30-17c1.3-3.1,2-6.4,2-9.8v-1.2c0-12.5-7.3-21.2-21.9-25.8
	L30.5,37H11.1z M11.1,102.4V173h25.4c17.6,0,29.5-5.2,35.7-15.5c4-5.7,6.2-12.5,6.1-19.4v-0.8c0-16.9-9.3-28.3-27.8-34.1l-12.6-0.8
	L11.1,102.4z"/>
<path d="M217.3,54.8h1.1c3.3,0,5.3,2.2,6.1,6.5v82.9c0,14.3-6.7,25.8-20.1,34.4c-5.9,3.5-12.6,5.4-19.4,5.5h-1.7
	c-13.2,0-24.2-6.4-33.1-19.1c-3.9-6.3-6.1-13.6-6.1-21.1c1-4.3,2.9-6.5,5.8-6.5h1.4c4.3,0,6.5,3.5,6.5,10.6
	c0.4,4.9,3.3,10.3,8.9,16.3c5,4.1,11.2,6.4,17.7,6.5c12.6,0,21.3-6.6,25.9-19.8c0.7-2.3,1-4.8,1-7.2V60.9
	C212,56.8,214,54.8,217.3,54.8z"/>
<path d="M249.3,129.8c-3.3,0-6-2.7-6-6V61.1c0-3.3,2.7-6,6-6s6,2.7,6,6v62.7C255.3,127.1,252.6,129.8,249.3,129.8z"/>
<path d="M174.1,74.1c14.6,0,26.4,11.8,26.4,26.4S188.7,127,174.1,127c-14.6,0-26.4-11.8-26.4-26.5l0,0
	C147.6,86,159.5,74.1,174.1,74.1z M164.8,100.6c0,5.1,4.2,9.3,9.3,9.3s9.3-4.2,9.3-9.3c0-5.1-4.2-9.3-9.3-9.3
	S164.8,95.4,164.8,100.6C164.8,100.6,164.8,100.6,164.8,100.6z"/>
<path d="M113.5,74.1c14.6,0,26.4,11.9,26.4,26.5c0,14.6-11.9,26.4-26.5,26.4C98.8,127,87,115.2,87,100.6C87,86,98.8,74.1,113.5,74.1
	C113.5,74.1,113.5,74.1,113.5,74.1z M124.6,86.2c0,0-11.1-4.9-18.9-2.1c-4.4,1.6-3.3,1.2-5.3,2.6c-1.7,1.2-3.8,3.9-3.4,5.2
	s0.9,1.4,2.1,1.3c1.3-0.2,2.5-0.5,3.6-1.1c2.8-0.9,5.8-1.4,8.8-1.4c2.8-0.1,5.7,0.2,8.4,0.7c2.9,0.6,5.6,1.3,5.6,1.3
	c0.7,0.3,1.5,0.6,2.3,0.8c0.7,0.1,2.1,0.5,2.3-0.7c0.2-0.9,0.1-1.9-0.3-2.7c-0.8-1-1.7-1.8-2.7-2.5L124.6,86.2z"/>
<path d="M299.4,25.4l-26.8-10.7L268,4.1c-0.2-0.5-0.8-0.9-1.3-0.9c0,0,0,0,0,0l-33,3c-2.2,0.2-4.4,0.2-6.5,0l-30.9-3
	c-0.5,0-1,0.3-1.2,0.9l-3.8,8.9c-0.5,1-1.3,1.8-2.3,2.2l-25.2,10l-1-2.6l25.2-10c0.4-0.1,0.6-0.4,0.8-0.8l3.8-8.9
	c0.7-1.5,2.2-2.5,3.9-2.5l31.1,3c2,0.2,4,0.2,6,0l33.1-3c0,0,0,0,0,0c1.8,0,3.3,1,4,2.6l4.1,9.5l25.8,10.2L299.4,25.4z"/>
<path d="M227.6,36.5c-6.6,3.7-13.4,7.1-20.3,10c-0.5,0.2-1.1,0.4-1.7,0.5c-3.8,0.6-7.3-2-7.9-5.8c0,0,0,0,0,0
	c-1.1-7.3-1.1-14.6,0-21.9c0.1-0.6,0.2-1.2,0.5-1.7c1.5-3.5,5.6-5.2,9.1-3.7c0,0,0,0,0,0c7,3,13.8,6.3,20.4,10.1
	c-3.5,2.3-4.5,6.9-2.2,10.4C226.1,35.2,226.8,35.9,227.6,36.5z"/>
<path d="M266,41.2c-0.1,0.6-0.3,1.2-0.5,1.7c-1.5,3.5-5.6,5.2-9.1,3.7c-7-2.9-13.8-6.3-20.3-10c3.4-2.3,4.4-7,2-10.4
	c-0.6-0.9-1.3-1.6-2.2-2.1c6.6-3.7,13.4-7.1,20.4-10.1c0.5-0.2,1.1-0.4,1.7-0.5c3.8-0.6,7.4,2,8,5.8C267.1,26.6,267.1,33.9,266,41.2
	z"/>
</svg>
